# xmcd CD database file
#
# Track frame offsets:
#	150
#	8077
#	15605
#	27745
#	41780
#	60377
#	70492
#	83247
#	114092
#	126025
#	139582
#	160585
#	179672
#	195847
#	211200
#	224220
#	237612
#
# Disc length: 3307 seconds
#
# Revision: 1
# Processed by: cddbd v1.5.2PL0 Copyright (c) Steve Scherf et al.
# Submitted via: CDex 1.70beta2
#
DISCID=f00ce911
DTITLE=小泉文夫 - 小泉文夫の遺産民族音楽の礎-02ナイルの歌-半職業人の器楽と語り物
DYEAR=1966
DGENRE=World
TTITLE0=アルグールのソロ(アルグールの独奏)
TTITLE1=歌とアルグール(アルグールの独奏)
TTITLE2=「ケナに予言者がいた」(ミズマールの独奏)
TTITLE3=馬の踊りの曲(ミズマールの独奏)
TTITLE4=カルナック村の結婚式(結婚式の音楽)
TTITLE5=カッサーバの演奏(結婚式の音楽)
TTITLE6=ハイエナの丘(ミズマール楽団)(祭りと踊りの音楽)
TTITLE7=ガワージーの踊りの曲(ミズマール楽団)(祭りと踊りの音楽)
TTITLE8=「ハワダーヤ」(サラメイヤ楽団)(祭りと踊りの音楽)
TTITLE9=船上の演奏(ラバーブの独奏と踊りの音楽)
TTITLE10=ラバーブの曲弾き(ラバーブの独奏と踊りの音楽)
TTITLE11=ガワージーの舞曲(ラバーブの独奏と踊りの音楽)
TTITLE12=アブー・ゼイドの古典(アブー・ゼイドの物語)
TTITLE13=アブー・ゼイドの新曲(アブー・ゼイドの物語)
TTITLE14=赤い恋の物語(語り物のいろいろ)
TTITLE15=アイユープの物語(語り物のいろいろ)
TTITLE16=キブラウィの物語(語り物のいろいろ)
EXTD=YEAR: 1966
EXTT0=
EXTT1=
EXTT2=
EXTT3=
EXTT4=
EXTT5=
EXTT6=
EXTT7=
EXTT8=
EXTT9=
EXTT10=
EXTT11=
EXTT12=
EXTT13=
EXTT14=
EXTT15=
EXTT16=
PLAYORDER=
